<?xml version="1.0" encoding="UTF-8" standalone="no" ?>
<!DOCTYPE svg PUBLIC "-//W3C//DTD SVG 1.1//EN" "http://www.w3.org/Graphics/SVG/1.1/DTD/svg11.dtd">
<svg xmlns="http://www.w3.org/2000/svg" xmlns:xlink="http://www.w3.org/1999/xlink" version="1.1" width="1280" height="1024" viewBox="0 0 1280 1024" xml:space="preserve">
<desc>Created with Fabric.js 3.6.3</desc>
<defs>
</defs>
<g transform="matrix(1.9692780337941629 0 0 1.9692780337941629 640.0153846153846 512.012312418764)" id="background-logo"  >
<rect style="stroke: none; stroke-width: 1; stroke-dasharray: none; stroke-linecap: butt; stroke-dashoffset: 0; stroke-linejoin: miter; stroke-miterlimit: 4; fill: rgb(0,0,0); fill-rule: nonzero; opacity: 1;"  paint-order="stroke"  x="-325" y="-260" rx="0" ry="0" width="650" height="520" />
</g>
<g transform="matrix(2.3691634990649177 0 0 2.3691634990649177 640.0153846153846 476.2739328167904)" id="logo-logo"  >
<g style=""  paint-order="stroke"   >
		<g transform="matrix(1.246116777507345 0 0 1.246116777507345 0 -2.842171e-14)"  >
<g style=""  paint-order="stroke"   >
		<g transform="matrix(1 0 0 1 0 0)"  >
<linearGradient id="SVGID_44_755971" gradientUnits="userSpaceOnUse" gradientTransform="matrix(1 0 0 1 -100 -100)"  x1="0" y1="0" x2="0" y2="200">
<stop offset="0%" style="stop-color:rgb(23,234,217);stop-opacity: 1"/>
<stop offset="100%" style="stop-color:rgb(96,120,234);stop-opacity: 1"/>
</linearGradient>
<polygon style="stroke: none; stroke-width: 1; stroke-dasharray: none; stroke-linecap: butt; stroke-dashoffset: 0; stroke-linejoin: miter; stroke-miterlimit: 4; fill: url(#SVGID_44_755971); fill-rule: nonzero; opacity: 1;"  paint-order="stroke"  points="100,100 0,100 0,95.12 95.12,95.12 95.12,-95.12 -95.12,-95.12 -95.12,0 -100,0 -100,-100 100,-100 100,100 " />
</g>
</g>
</g>
</g>
</g>
<g transform="matrix(-1.1499879032304008 -1.149987903230401 1.149987903230401 -1.149987903230401 461.33524302832853 658.3551495743105)" id="shape-52f4824a-f28e-48d7-8f5f-10b549baad55-logo"  >
<g style=""  paint-order="stroke"   >
		<g transform="matrix(1 0 0 1 0 1.77636e-15)" id="line-10"  >
<linearGradient id="SVGID_45_755972" gradientUnits="userSpaceOnUse" gradientTransform="matrix(1 0 0 1 0 0.003224120490441962)"  x1="0" y1="0" x2="0" y2="26">
<stop offset="0%" style="stop-color:rgb(23,234,217);stop-opacity: 1"/>
<stop offset="100%" style="stop-color:rgb(96,120,234);stop-opacity: 1"/>
</linearGradient>
<path style="stroke: none; stroke-width: 1; stroke-dasharray: none; stroke-linecap: butt; stroke-dashoffset: 0; stroke-linejoin: miter; stroke-miterlimit: 4; fill: url(#SVGID_45_755972); fill-rule: nonzero; opacity: 1;"  paint-order="stroke"  transform=" translate(-97.5113679916748, -12.75661206024522)" d="M 185.33 4.8 s 6.73 0.84 7.43 3.35 c 2.3 8.24 -22.92 11.14 -53 9 C 104.56 14.56 63 -7.57 29.53 2.71 C 10.92 8.43 0 15.79 0 15.79 s 7.47 -1.56 9.43 0.83 s -0.07 8.89 -0.07 8.89 S 22.05 15.6 37.71 12.68 C 69.47 6.76 101.2 19.27 153.4 20.8 c 18.78 0.55 40.83 -1.25 41.61 -11.5 c 0.35 -4.57 -6.63 -6.2 -6.63 -6.2 a 7.32 7.32 0 0 1 -3 1.7" stroke-linecap="round" />
</g>
</g>
</g>
<g transform="matrix(3.0996581950382103 -0.8305509101729995 0.8305509101729994 3.09965819503821 648.6561508728305 390.6086689682674)" id="shape-635623df-b890-471d-bf9e-883116fc467b-logo"  >
<g style=""  paint-order="stroke"   >
		<g transform="matrix(1 0 0 1 0 0)" id="Layer_1"  >
<path style="stroke: none; stroke-width: 1; stroke-dasharray: none; stroke-linecap: butt; stroke-dashoffset: 0; stroke-linejoin: miter; stroke-miterlimit: 4; fill: rgb(27,206,223); fill-rule: nonzero; opacity: 1;"  paint-order="stroke"  transform=" translate(-99.93874613882389, -5.05)" d="M 184 1.2 c -4.4 -0.3 -8.7 -0.5 -13.1 -0.7 c -1.4 -0.1 -2.9 -0.1 -4.3 -0.1 c -3.1 -0.1 -6.3 -0.2 -9.4 -0.2 c -1.7 0 -3.5 -0.1 -5.2 -0.1 c -0.5 0 -1 0 -1.5 0 c -1.1 0 -2.3 0 -3.4 0 c -5.2 0 -10.3 0 -15.5 0 c -1.2 0 -2.5 0 -3.7 0 c -3 0 -6.1 0.1 -9.1 0.1 c -3.4 0 -6.9 0.1 -10.3 0.2 c -5.6 0.1 -11.1 0.3 -16.7 0.4 c -3.2 0.1 -6.4 0.1 -9.7 0.3 c -5.5 0.2 -11.1 0.5 -16.6 0.7 c -3 0.1 -6.1 0.2 -9.1 0.4 c -5.7 0.3 -11.5 0.7 -17.2 1 c -3.1 0.2 -6.1 0.3 -9.2 0.6 c -5.7 0.5 -11.4 1 -17.1 1.5 c -1.2 0.1 -2.5 0.2 -3.7 0.3 C 6.7 5.8 4.2 6.1 1.7 6.4 c -0.2 0 -0.3 0 -0.5 0.1 C 1 6.5 0.7 6.7 0.5 6.9 C 0.2 7.3 0 7.7 0 8.2 s 0.2 0.9 0.5 1.3 C 0.8 9.8 1.3 10 1.7 10 c 3 -0.3 5.9 -0.7 8.9 -1 c 2.8 -0.2 5.5 -0.5 8.3 -0.7 c 3 -0.3 6 -0.5 9 -0.8 c 1.2 -0.1 2.4 -0.2 3.6 -0.3 c 4.7 -0.3 9.4 -0.5 14.1 -0.8 c 2.9 -0.2 5.8 -0.3 8.8 -0.5 c 1.2 -0.1 2.4 -0.2 3.6 -0.2 c 4.6 -0.2 9.3 -0.4 13.9 -0.6 c 2.8 -0.1 5.6 -0.2 8.4 -0.3 c 0.9 0 1.9 -0.1 2.8 -0.1 c 5 -0.1 10 -0.2 15 -0.4 c 2.8 -0.1 5.6 -0.1 8.4 -0.2 c 1 0 2 -0.1 3 -0.1 c 5.2 -0.1 10.3 -0.1 15.5 -0.2 c 3.2 0 6.5 -0.1 9.7 -0.1 c 5.5 0 11 0 16.5 0 c 1.1 0 2.2 0 3.2 0.1 c 3 0.1 6.1 0.2 9.1 0.3 c 2.3 0.1 4.5 0.1 6.8 0.2 c 1.6 0 3.2 0.2 4.8 0.3 c 4.7 0.3 9.5 0.5 14.2 0.8 c 1.2 0.1 2.4 0.2 3.6 0.3 c 1.3 0.1 2.6 0.2 3.9 0.3 c 0.2 0 0.4 0.1 0.6 0.1 c 0.5 0.1 1 0.1 1.5 -0.2 c 0.4 -0.3 0.7 -0.7 0.9 -1.2 c 0.3 -1 -0.3 -2.1 -1.3 -2.4 c -0.9 -0.2 -1.8 -0.3 -2.7 -0.4 c -0.6 -0.1 -1.2 -0.1 -1.8 -0.2 c -1.2 -0.1 -2.4 -0.2 -3.5 -0.3 C 188.4 1.4 186.2 1.3 184 1.2 z" stroke-linecap="round" />
</g>
</g>
</g>
<g transform="matrix(1.9692780337941633 0 0 1.9692780337941629 652.7873257696185 343.1479321848161)" id="text-logo-path"  >
<linearGradient id="SVGID_47_755974" gradientUnits="userSpaceOnUse" gradientTransform="matrix(1 0 0 1 16.120000000000005 -104.63)"  x1="0" y1="0" x2="0" y2="182">
<stop offset="0%" style="stop-color:rgb(23,234,217);stop-opacity: 1"/>
<stop offset="100%" style="stop-color:rgb(96,120,234);stop-opacity: 1"/>
</linearGradient>
<path style="stroke: rgb(255,255,255); stroke-width: 0; stroke-dasharray: none; stroke-linecap: butt; stroke-dashoffset: 0; stroke-linejoin: miter; stroke-miterlimit: 10; fill: url(#SVGID_47_755974); fill-rule: nonzero; opacity: 1;"  paint-order="stroke"  transform=" translate(-94.495, 52.315)" d="M 27.36 0 L 16.12 0 L 16.12 -104.63 L 33.02 -104.63 L 51.33 -35.61 L 69.89 -104.63 L 86.79 -104.63 L 86.79 0 L 75.55 0 L 75.55 -86.63 L 56.68 -16.12 L 46.22 -16.12 L 27.36 -86.63 L 27.36 0 Z M 130.34 0 L 119.1 0 L 119.1 -104.63 L 130.34 -104.63 L 130.34 -60.22 L 158.41 -104.63 L 170.91 -104.63 L 142.45 -59.59 L 172.87 0 L 160.45 0 L 135.69 -48.82 L 130.34 -40.25 L 130.34 0 Z" stroke-linecap="round" />
</g>
<g transform="matrix(1.7603093989430965 0 0 1.7603093989430965 671.036904319954 499.2822105345049)" id="shape-b05ea2d8-867e-4b64-9297-c0f30738f94d-logo"  >
<g style=""  paint-order="stroke"   >
		<g transform="matrix(1 0 0 1 0 0)" id="decoration-5"  >
<linearGradient id="SVGID_755975" gradientUnits="userSpaceOnUse" gradientTransform="matrix(1 0 0 1 0.060000000000002274 0.0115373275387185)"  x1="0" y1="0" x2="0" y2="59">
<stop offset="0%" style="stop-color:rgb(23,234,217);stop-opacity: 1"/>
<stop offset="100%" style="stop-color:rgb(96,120,234);stop-opacity: 1"/>
</linearGradient>
<path style="stroke: none; stroke-width: 1; stroke-dasharray: none; stroke-linecap: butt; stroke-dashoffset: 0; stroke-linejoin: miter; stroke-miterlimit: 4; fill: url(#SVGID_755975); fill-rule: nonzero; opacity: 1;"  paint-order="stroke"  transform=" translate(-100, -18.257464140521847)" d="M 199.94 21.26 c -46.12 -24.61 -97.28 3.84 -97.28 3.84 C 22.52 60.87 0.06 1.06 0.06 1.06 c 6.22 12 33 43.88 92.29 11.41 S 199.94 21.26 199.94 21.26 Z M 87.2 9 S 33.81 26.48 10.89 4.7 c 0 0 23 34.07 76.31 4.34 M 118.5 28 s 47.82 -15.51 76.43 -2.33 c 0 0 -31.62 -23.23 -76.43 2.33" stroke-linecap="round" />
</g>
</g>
</g>
<g transform="matrix(1.9692780337941629 0 0 1.9692780337941629 696.3230099290163 608.0600644953986)" id="tagline-d36320e8-e5a0-4545-840a-15682dc3759f-logo-path"  >
<path style="stroke: none; stroke-width: 0; stroke-dasharray: none; stroke-linecap: butt; stroke-dashoffset: 0; stroke-linejoin: miter; stroke-miterlimit: 4; fill: rgb(27,206,223); fill-rule: nonzero; opacity: 1;"  paint-order="stroke"  transform=" translate(-108.91, 22.055)" d="M 4.4 0 L 0 0 L 0 -44.11 L 6.74 -44.11 L 12.34 -11.47 L 17.96 -44.11 L 24.64 -44.11 L 24.64 0 L 20.21 0 L 20.21 -31.38 L 15.32 -3.2 L 9.32 -3.2 L 4.4 -31.38 L 4.4 0 Z M 32.55 0 L 28.09 0 L 29.78 -10.46 L 28.09 -10.46 L 28.09 -14.86 L 30.45 -14.86 L 35.13 -44.11 L 41.19 -44.11 L 48.23 0 L 43.74 0 L 38.14 -35.22 L 34.95 -14.86 L 38.14 -14.86 L 38.14 -10.46 L 34.24 -10.46 L 32.55 0 Z M 55.06 0 L 50.66 0 L 50.66 -26.46 L 55.06 -26.46 L 50.66 -39.68 L 50.66 -44.11 L 55.06 -44.11 L 55.06 -26.46 L 63.83 -26.46 L 63.83 -44.11 L 68.23 -44.11 L 68.23 0 L 63.83 0 L 63.83 -22.06 L 55.06 -22.06 L 55.06 0 Z M 76.17 0 L 71.71 0 L 73.4 -10.46 L 71.71 -10.46 L 71.71 -14.86 L 74.07 -14.86 L 78.75 -44.11 L 84.81 -44.11 L 91.85 0 L 87.36 0 L 81.76 -35.22 L 78.57 -14.86 L 81.76 -14.86 L 81.76 -10.46 L 77.86 -10.46 L 76.17 0 Z M 106.84 0 L 94.28 0 L 94.28 -26.46 L 98.68 -26.46 L 94.28 -39.68 L 94.28 -44.11 L 106.84 -44.11 Q 108.93 -44.11 110.39 -42.59 Q 111.85 -41.07 111.85 -39.01 L 111.85 -39.01 L 111.85 -4.98 Q 111.85 -2.95 110.37 -1.48 Q 108.9 0 106.84 0 L 106.84 0 Z M 98.68 -39.62 L 98.68 -4.4 L 106.84 -4.4 Q 107.45 -4.4 107.45 -4.98 L 107.45 -4.98 L 107.45 -39.01 Q 107.45 -39.62 106.84 -39.62 L 106.84 -39.62 L 98.68 -39.62 Z M 120.34 0 L 115.94 0 L 115.94 -44.11 L 120.34 -44.11 L 120.34 0 Z M 139.2 0 L 134.8 0 L 134.8 -0.06 L 134.8 -44.05 L 134.8 -44.11 L 139.2 -44.11 L 139.2 -44.05 L 139.2 -26.58 L 139.26 -26.58 L 147.66 -44.11 L 152.58 -44.11 L 144.43 -27.35 L 152.58 0 L 147.9 0 L 141.66 -21.53 L 139.2 -16.64 L 139.2 0 Z M 160.98 0 L 156.58 0 L 156.58 -26.46 L 160.98 -26.46 L 156.58 -39.68 L 156.58 -44.11 L 160.98 -44.11 L 160.98 -26.46 L 169.74 -26.46 L 169.74 -44.11 L 174.14 -44.11 L 174.14 0 L 169.74 0 L 169.74 -22.06 L 160.98 -22.06 L 160.98 0 Z M 182.08 0 L 177.62 0 L 179.31 -10.46 L 177.62 -10.46 L 177.62 -14.86 L 179.99 -14.86 L 184.66 -44.11 L 190.72 -44.11 L 197.77 0 L 193.28 0 L 187.68 -35.22 L 184.48 -14.86 L 187.68 -14.86 L 187.68 -10.46 L 183.77 -10.46 L 182.08 0 Z M 204.6 0 L 200.2 0 L 200.2 -44.11 L 204.6 -44.11 L 204.6 -44.05 L 213.42 -14.92 L 213.42 -44.11 L 217.82 -44.11 L 217.82 0 L 213.42 0 L 213.3 0 L 204.6 -29.1 L 204.6 0 Z" stroke-linecap="round" />
</g>
</svg>